<svg width="64" height="64" viewBox="0 0 64 64" fill="none" xmlns="http://www.w3.org/2000/svg">
<rect x="12" y="12" width="40" height="40" rx="20" fill="#2A0344"/>
<path d="M33.5 24.5L41 32M41 32L33.5 39.5M41 32H23" stroke="white" stroke-width="1.5" stroke-linecap="round" stroke-linejoin="round"/>
<path fill-rule="evenodd" clip-rule="evenodd" d="M57.9538 48.9594C52.4175 57.4146 42.861 63 32 63C14.8792 63 1 49.1208 1 32C1 14.8792 14.8792 1 32 1C42.861 1 52.4175 6.58544 57.9538 15.0406C58.2779 14.9251 58.6064 14.8185 58.9388 14.7213C53.2472 5.86606 43.3086 0 32 0C14.3269 0 0 14.3269 0 32C0 49.6731 14.3269 64 32 64C43.3086 64 53.2472 58.1339 58.9388 49.2787C58.6064 49.1815 58.2779 49.0749 57.9538 48.9594Z" fill="#2A0344"/>
</svg>
